<svg xmlns="http://www.w3.org/2000/svg" viewBox="0 0 32 32">
<path fill="#25D366" d="M19.11 17.62c-.27-.14-1.58-.78-1.82-.87-.24-.09-.42-.14-.6.14-.18.27-.69.86-.84 1.03-.15.18-.31.2-.57.07-.27-.14-1.13-.42-2.15-1.35-.79-.7-1.32-1.57-1.47-1.83-.15-.27-.02-.41.11-.54.12-.12.27-.31.41-.47.14-.16.18-.27.27-.45.09-.18.05-.34-.02-.48-.07-.14-.6-1.44-.82-1.97-.22-.53-.44-.46-.6-.46-.15 0-.34-.02-.52-.02-.18 0-.48.07-.73.34-.25.27-.96.94-.96 2.28s.98 2.65 1.12 2.83c.14.18 1.93 2.94 4.67 4.12.65.28 1.15.45 1.54.57.65.21 1.25.18 1.72.11.52-.08 1.58-.65 1.81-1.28.22-.63.22-1.17.15-1.28-.07-.11-.25-.18-.52-.32z"/>
<path fill="#25D366" d="M27.86 4.16A15.87 15.87 0 0016.02 0C7.2 0 .04 7.16.04 15.98c0 2.82.74 5.61 2.14 8.05L0 32l8.2-2.14a15.93 15.93 0 007.82 2c8.83 0 15.98-7.16 15.98-15.98 0-4.27-1.66-8.28-4.14-11.72zM16.02 29.1a13.06 13.06 0 01-6.66-1.83l-.48-.29-4.86 1.27 1.3-4.73-.31-.49A13.07 13.07 0 013.93 16C3.93 8.86 9.88 2.9 17.02 2.9c3.41 0 6.65 1.33 9.08 3.76a12.75 12.75 0 013.81 9.34c0 7.14-5.95 13.1-13.9 13.1z"/></svg>